<svg xmlns="http://www.w3.org/2000/svg" xmlns:xlink="http://www.w3.org/1999/xlink" width="128" height="128" viewBox="0 0 128 128"><defs><clipPath id="b"><rect width="128" height="128"/></clipPath></defs><g id="a" clip-path="url(#b)"><path d="M40.447,89.748a56.519,56.519,0,0,1-13.534-5.27,20.378,20.378,0,0,1-12.79,5.152A13.309,13.309,0,0,1,7.3,87.825a13.538,13.538,0,0,1-4.875-4.957A16.762,16.762,0,0,1,.959,79.544a20.023,20.023,0,0,1-.8-3.734,24.966,24.966,0,0,1,.451-8.236,30.03,30.03,0,0,1,3.278-8.489A30.9,30.9,0,0,1,6.4,55.325c-.023-.477-.035-.964-.035-1.446A29.641,29.641,0,0,1,9,41.722,35.749,35.749,0,0,1,16.3,31.21a11.874,11.874,0,0,1-1.138-5.053,12.713,12.713,0,0,1,3.606-8.682A8.366,8.366,0,0,1,16.363,15.9a10.315,10.315,0,0,1-1.985-2.509,10.438,10.438,0,0,1-1.14-2.953,8.68,8.68,0,0,1-.157-2.865,6.328,6.328,0,0,1,.788-2.455,4.71,4.71,0,0,1,1.7-1.724,4.63,4.63,0,0,1,2.373-.628,6.105,6.105,0,0,1,2.383.512A8.34,8.34,0,0,1,22.6,4.743c.033-.06.062-.112.089-.159C24.271,1.8,26.923,0,29.442,0a4.629,4.629,0,0,1,2.373.628,4.707,4.707,0,0,1,1.7,1.724A6.323,6.323,0,0,1,34.3,4.807a8.686,8.686,0,0,1-.157,2.865A10.451,10.451,0,0,1,33,10.625c-.1.18-.211.359-.323.532.774-.069,1.562-.1,2.34-.1a26.01,26.01,0,0,1,4.41.374,24.2,24.2,0,0,1,4.064,1.067,21.787,21.787,0,0,1,3.61,1.678,18.793,18.793,0,0,1,3.048,2.207c1.926-.172,3.894-.259,5.849-.259a65.239,65.239,0,0,1,10,.767,61.285,61.285,0,0,1,9.316,2.2,56.065,56.065,0,0,1,8.431,3.481,49.6,49.6,0,0,1,7.345,4.611,42.607,42.607,0,0,1,6.061,5.588,36.169,36.169,0,0,1,4.576,6.414,31.417,31.417,0,0,1,2.892,7.088,29.31,29.31,0,0,1,1.008,7.61c0,.479-.012.966-.036,1.446a30.888,30.888,0,0,1,2.517,3.758,30.03,30.03,0,0,1,3.278,8.489,24.961,24.961,0,0,1,.451,8.236,20.036,20.036,0,0,1-.8,3.734,16.774,16.774,0,0,1-1.467,3.324,13.535,13.535,0,0,1-4.875,4.957,13.312,13.312,0,0,1-6.822,1.805,20.383,20.383,0,0,1-12.791-5.152,56.509,56.509,0,0,1-13.534,5.27,64.905,64.905,0,0,1-31.1,0Zm16.47-.633a58.012,58.012,0,0,0,16.8-2.694V49.9a59.613,59.613,0,0,0-16.8-3.092ZM38.161,49.859V86.381a57.958,57.958,0,0,0,16.8,2.732V46.8A59.21,59.21,0,0,0,38.161,49.859ZM75.673,85.752a47.756,47.756,0,0,0,12.614-6.805l.245-.188A40.793,40.793,0,0,0,99.339,62.748,105.069,105.069,0,0,0,75.673,50.56ZM12.417,62.79A30.14,30.14,0,0,0,16.86,72.3a38.411,38.411,0,0,0,6.853,6.647A47.713,47.713,0,0,0,36.2,85.707V50.52A104.4,104.4,0,0,0,12.417,62.79Zm88.334-1.454a27.029,27.029,0,0,0,.91-6.955c0-9.279-4.75-18-13.374-24.564S68.2,19.643,56,19.643,32.337,23.257,23.713,29.818,10.339,45.1,10.339,54.382a27.016,27.016,0,0,0,.881,6.845c3.464-2.48,23.841-16.4,44.654-16.4C77.02,44.825,97.778,59.2,100.751,61.337ZM18.764,44.887c-.576-3.288.931-6.3,3.365-6.737S27,40.034,27.578,43.322s-.931,6.3-3.365,6.737a3.366,3.366,0,0,1-.589.052C21.4,50.111,19.294,47.91,18.764,44.887Zm69.024,5.16c-2.426-.431-3.927-3.441-3.352-6.723s3.007-5.594,5.433-5.163S93.8,41.6,93.221,44.885C92.693,47.9,90.594,50.1,88.374,50.1A3.347,3.347,0,0,1,87.788,50.048Z" transform="translate(8 18.181)"/></g></svg>