<svg xmlns="http://www.w3.org/2000/svg" xmlns:xlink="http://www.w3.org/1999/xlink" width="14" height="14" viewBox="0 0 14 14">
  <defs>
    <clipPath id="clip-kunlab_bg_logo_1">
      <rect width="14" height="14"/>
    </clipPath>
  </defs>
  <g id="kunlab_bg_logo_1" data-name="kunlab_bg_logo – 1" clip-path="url(#clip-kunlab_bg_logo_1)">
    <rect id="矩形_4" data-name="矩形 4" width="512" height="512" rx="256" fill="#fff"/>
    <path id="联合_13" data-name="联合 13" d="M5.056,11.218a7.065,7.065,0,0,1-1.692-.659,2.547,2.547,0,0,1-1.6.644,1.664,1.664,0,0,1-.853-.226,1.692,1.692,0,0,1-.609-.62A2.1,2.1,0,0,1,.12,9.943a2.5,2.5,0,0,1-.1-.467,3.121,3.121,0,0,1,.056-1.03,3.754,3.754,0,0,1,.41-1.061A3.863,3.863,0,0,1,.8,6.916c0-.06,0-.121,0-.181a3.705,3.705,0,0,1,.329-1.52A4.469,4.469,0,0,1,2.038,3.9,1.484,1.484,0,0,1,1.9,3.27a1.589,1.589,0,0,1,.451-1.085,1.046,1.046,0,0,1-.3-.2A1.289,1.289,0,0,1,1.8,1.674a1.3,1.3,0,0,1-.143-.369,1.085,1.085,0,0,1-.02-.358.791.791,0,0,1,.1-.307A.589.589,0,0,1,1.946.425a.579.579,0,0,1,.3-.078.763.763,0,0,1,.3.064,1.043,1.043,0,0,1,.285.183l.011-.02A1.043,1.043,0,0,1,3.68,0a.579.579,0,0,1,.3.078.588.588,0,0,1,.212.216.79.79,0,0,1,.1.307,1.086,1.086,0,0,1-.02.358,1.306,1.306,0,0,1-.143.369c-.013.022-.026.045-.04.066.1-.009.2-.013.293-.013a3.251,3.251,0,0,1,.551.047,3.025,3.025,0,0,1,.508.133,2.723,2.723,0,0,1,.451.21,2.349,2.349,0,0,1,.381.276c.241-.022.487-.032.731-.032a8.155,8.155,0,0,1,1.25.1,7.661,7.661,0,0,1,1.165.275,7.008,7.008,0,0,1,1.054.435,6.2,6.2,0,0,1,.918.576,5.326,5.326,0,0,1,.758.7,4.521,4.521,0,0,1,.572.8,3.927,3.927,0,0,1,.361.886,3.664,3.664,0,0,1,.126.951c0,.06,0,.121,0,.181a3.861,3.861,0,0,1,.315.47,3.754,3.754,0,0,1,.41,1.061,3.12,3.12,0,0,1,.056,1.03,2.5,2.5,0,0,1-.1.467,2.1,2.1,0,0,1-.183.416,1.692,1.692,0,0,1-.609.62,1.664,1.664,0,0,1-.853.226,2.548,2.548,0,0,1-1.6-.644,7.064,7.064,0,0,1-1.692.659,8.113,8.113,0,0,1-3.888,0Zm2.059-.079a7.252,7.252,0,0,0,2.1-.337V6.237a7.452,7.452,0,0,0-2.1-.386ZM4.77,6.232V10.8a7.245,7.245,0,0,0,2.1.341V5.85A7.4,7.4,0,0,0,4.77,6.232Zm4.689,4.487a5.969,5.969,0,0,0,1.577-.851l.031-.023a5.1,5.1,0,0,0,1.351-2A13.134,13.134,0,0,0,9.459,6.32ZM1.552,7.849a3.768,3.768,0,0,0,.555,1.189,4.8,4.8,0,0,0,.857.831,5.964,5.964,0,0,0,1.561.845v-4.4A13.05,13.05,0,0,0,1.552,7.849Zm11.042-.182a3.379,3.379,0,0,0,.114-.869,3.874,3.874,0,0,0-1.672-3.071A6.678,6.678,0,0,0,7,2.455,6.678,6.678,0,0,0,2.964,3.727,3.874,3.874,0,0,0,1.292,6.8a3.377,3.377,0,0,0,.11.856A10.894,10.894,0,0,1,6.984,5.6,10.969,10.969,0,0,1,12.594,7.667ZM2.345,5.611a.682.682,0,0,1,.421-.842c.3-.054.609.235.681.646a.682.682,0,0,1-.421.842.421.421,0,0,1-.074.006A.714.714,0,0,1,2.345,5.611Zm8.628.645a.681.681,0,0,1-.419-.84c.072-.41.376-.7.679-.645a.681.681,0,0,1,.419.84.712.712,0,0,1-.606.652A.418.418,0,0,1,10.973,6.256Z" transform="translate(0 1.272)"/>
  </g>
</svg>
