<svg xmlns="http://www.w3.org/2000/svg" xmlns:xlink="http://www.w3.org/1999/xlink" width="256" height="256" viewBox="0 0 256 256">
  <defs>
    <clipPath id="clip-画板_10">
      <rect width="256" height="256"/>
    </clipPath>
  </defs>
  <g id="画板_10" data-name="画板 – 10" clip-path="url(#clip-画板_10)">
    <rect width="256" height="256" fill="#ebebeb"/>
    <path id="路径_6" data-name="路径 6" d="M104.441,162.26l-2.255-.007h-.737l-2.21-.007-1.117,0h-.471l-.856,0c-4.132-.167-8.223-.5-12.159-.991-4.052-.506-8.063-1.193-11.922-2.043-1.969-.434-3.943-.92-5.866-1.444-1.946-.53-3.9-1.116-5.8-1.74-1.923-.631-3.851-1.32-5.729-2.048-1.9-.736-3.8-1.532-5.656-2.366-2.511-1.13-4.948-2.339-7.244-3.594-2.388-1.3-4.7-2.7-6.872-4.149-2.249-1.5-4.421-3.1-6.454-4.768a77.079,77.079,0,0,1-5.99-5.45,68.474,68.474,0,0,1-5.174-5.85,57.092,57.092,0,0,1-4.326-6.336c-.647-1.1-1.256-2.238-1.81-3.37-.565-1.153-1.089-2.335-1.557-3.514-.476-1.2-.91-2.433-1.289-3.666-.385-1.251-.724-2.538-1.008-3.825a1.141,1.141,0,0,0-.41-.706,2.272,2.272,0,0,0-.673-.307l-.039-.013-.012,0-.064-.022a14.846,14.846,0,0,1-2.023-.857,11.025,11.025,0,0,1-1.782-1.148,9.3,9.3,0,0,1-1.494-1.493,9.388,9.388,0,0,1-1.159-1.892,3.375,3.375,0,0,1-.194-.609h0c-.021-.084-.047-.189-.076-.289,0-.342,0-.7-.007-1.008V98.6c0-.282,0-.571-.006-.855A3.923,3.923,0,0,1,1.531,95.73a4.652,4.652,0,0,1,2.609-.706,7.875,7.875,0,0,1,1.562.167,3.08,3.08,0,0,0,.594.078.5.5,0,0,0,.481-.221,1.771,1.771,0,0,0,.172-.771,50.018,50.018,0,0,1,.656-5.061A47.831,47.831,0,0,1,10.343,79.8c.6-1.472,1.28-2.944,2.029-4.374.734-1.4,1.553-2.8,2.435-4.169.864-1.336,1.811-2.674,2.816-3.976.982-1.272,2.048-2.549,3.17-3.8,1.093-1.214,2.27-2.434,3.5-3.628,1.679-1.63,3.472-3.212,5.327-4.7,1.8-1.448,3.716-2.853,5.692-4.176,1.913-1.281,3.938-2.524,6.021-3.693,2.008-1.128,4.133-2.223,6.315-3.256a2,2,0,0,0,.8-.586,1.724,1.724,0,0,0,.288-.994,14.752,14.752,0,0,1,.362-2.7,19.723,19.723,0,0,1,.778-2.571,50.224,50.224,0,0,1,2.25-4.916v0A29.055,29.055,0,0,1,54.2,28.755a25.927,25.927,0,0,1,2.517-3.1,25.043,25.043,0,0,1,2.988-2.67,26.442,26.442,0,0,1,3.486-2.23,20.5,20.5,0,0,1-2.341-2.031,19.17,19.17,0,0,1-1.934-2.295,19.424,19.424,0,0,1-1.543-2.555,21.26,21.26,0,0,1-1.167-2.81A15.85,15.85,0,0,1,55.4,7.442a10.764,10.764,0,0,1-.01-1.84,9.609,9.609,0,0,1,.34-1.856A5.486,5.486,0,0,1,57.42.953,4.282,4.282,0,0,1,60.229,0a6.843,6.843,0,0,1,1.637.213,9.985,9.985,0,0,1,3.591,1.728A17.69,17.69,0,0,1,68.327,4.7a19.846,19.846,0,0,1,3.616,6.374c.232-.255.459-.513.658-.74l0,0,0,0c.463-.527.9-1.024,1.382-1.485A7.473,7.473,0,0,1,76.07,7.415a5.777,5.777,0,0,1,1.073-.365,4.665,4.665,0,0,1,1.046-.123,3.538,3.538,0,0,1,1.71.414,3.158,3.158,0,0,1,1.014.878,4.094,4.094,0,0,1,.638,1.288,6.232,6.232,0,0,1,.249,1.629,9.365,9.365,0,0,1-.154,1.9,13.879,13.879,0,0,1-1.728,4.232,44.455,44.455,0,0,1,5.1.672,32.444,32.444,0,0,1,4.874,1.331c1.706.616,3.35,1.3,4.887,2.023a46.75,46.75,0,0,1,4.6,2.49,40.541,40.541,0,0,1,4.251,3.017,37.1,37.1,0,0,1,3.841,3.6,7.975,7.975,0,0,0,1.266,1.126,6.352,6.352,0,0,0,1.311.715,7.525,7.525,0,0,0,1.406.4,13.343,13.343,0,0,0,1.552.193c3.2.235,6.4.587,9.519,1.048,3.148.465,6.3,1.054,9.361,1.75,3.1.7,6.188,1.536,9.194,2.474,3.038.948,6.072,2.031,9.019,3.219s5.815,2.483,8.494,3.836c2.8,1.416,5.508,2.948,8.037,4.555a83.746,83.746,0,0,1,7.512,5.366c1.209.971,2.4,1.985,3.538,3.016,1.156,1.047,2.294,2.142,3.381,3.254a67.246,67.246,0,0,1,5.243,6.025c.806,1.05,1.576,2.126,2.29,3.2.726,1.091,1.416,2.212,2.05,3.333.645,1.139,1.249,2.308,1.8,3.474.557,1.186,1.071,2.4,1.528,3.622.464,1.235.883,2.506,1.246,3.777.368,1.289.687,2.614.95,3.939a32.121,32.121,0,0,1,.7,5.51,2.122,2.122,0,0,0,.106.779.492.492,0,0,0,.507.294,2.018,2.018,0,0,0,.531-.089,5.106,5.106,0,0,1,1.382-.164c.394,0,.785.03,1.044.052a4.516,4.516,0,0,1,1.832.538,3.384,3.384,0,0,1,1.224,1.144,3.83,3.83,0,0,1,.216,3.441,8.749,8.749,0,0,1-1.066,2.033,8.6,8.6,0,0,1-1.475,1.6,10.311,10.311,0,0,1-1.817,1.214,14.079,14.079,0,0,1-2.094.888,2.363,2.363,0,0,0-.936.505,1.866,1.866,0,0,0-.492.972,49,49,0,0,1-2.155,6.993,50.427,50.427,0,0,1-3.1,6.473,55.512,55.512,0,0,1-3.955,5.994,64.531,64.531,0,0,1-4.729,5.555c-1.335,1.4-2.74,2.775-4.176,4.077-1.408,1.276-2.888,2.524-4.4,3.709-1.478,1.159-3.03,2.29-4.611,3.362-1.544,1.048-3.162,2.069-4.808,3.037-1.6.943-3.284,1.862-4.992,2.732-1.665.848-3.4,1.672-5.163,2.449-1.714.757-3.5,1.493-5.32,2.187-1.764.675-3.6,1.33-5.464,1.947-2.862.949-5.815,1.8-8.778,2.54-2.9.721-5.9,1.35-8.9,1.867-2.939.507-5.971.922-9.01,1.234-2.972.306-6.038.522-9.114.642l-2.635.018ZM99.1,92.089c-.228,0-.5.016-.863.038a114.147,114.147,0,0,0-31.779,6.967c-.8.287-.8.749-.794,1.334q0,.057,0,.115,0,3.53,0,7.061v.017c0,13.612.005,27.687-.024,41.53a1.781,1.781,0,0,0,.231,1.049,1.517,1.517,0,0,0,.914.543c2.607.718,5.259,1.363,7.883,1.917s5.306,1.035,7.954,1.425,5.355.7,8.028.931,5.4.373,8.1.433h.126a1.341,1.341,0,0,0,.977-.257c.217-.218.258-.583.256-1.141-.032-7.822-.029-15.775-.026-23.466v0c0-1.989,0-4.463,0-6.809V93.9a4.193,4.193,0,0,0-.124-1.473C99.847,92.178,99.621,92.089,99.1,92.089Zm5.79-.065a1.439,1.439,0,0,0-1.076.294,1.78,1.78,0,0,0-.316,1.3c.051,7.639.045,15.4.04,22.907,0,2.328,0,4.736,0,7.111,0,2.246,0,4.53,0,6.739v.034c0,7.8.005,15.86-.024,23.79a1.434,1.434,0,0,0,.236,1.015,1.22,1.22,0,0,0,.9.234h.112c2.7-.058,5.429-.2,8.106-.425s5.379-.534,8.032-.923,5.329-.867,7.959-1.421,5.281-1.2,7.887-1.917a1.765,1.765,0,0,0,1.016-.571,1.869,1.869,0,0,0,.278-1.167C138,136.353,138,123.483,138,111.036v-.156c0-2.9,0-5.9,0-8.856,0-3.112,0-3.112-2.917-4.1l-.007,0a105.687,105.687,0,0,0-29.945-5.895C105.047,92.025,104.966,92.024,104.889,92.024Zm36.78,8.311v48.748a.712.712,0,0,0,.26.051,1.14,1.14,0,0,0,.484-.141,2.138,2.138,0,0,1,.211-.089c2.358-.8,4.675-1.681,6.888-2.615,2.285-.965,4.529-2.018,6.669-3.129,10.383-5.392,18.39-11.8,24.478-19.578.345-.441.535-.756.492-1.064-.039-.271-.256-.532-.726-.871-4.377-3.159-8.967-6.169-13.644-8.946-4.621-2.743-9.457-5.337-14.376-7.71C148.216,102.97,144.905,101.534,141.669,100.335Zm-79.375.378c-3.485,1.4-6.964,2.913-10.34,4.5-3.359,1.579-6.714,3.277-9.972,5.045-3.24,1.759-6.48,3.641-9.629,5.592-3.129,1.939-6.262,4-9.31,6.14a.894.894,0,0,0-.438.54c-.035.229.115.444.347.744,1.038,1.344,2.12,2.641,3.218,3.853,1.134,1.253,2.319,2.455,3.523,3.574,8.331,7.739,18.6,13.692,31.406,18.2a2.377,2.377,0,0,0,.735.173.4.4,0,0,0,.3-.105c.152-.152.181-.47.18-.968-.027-12.027-.025-24.255-.023-36.081v-.028c0-2.58,0-5.791,0-8.834Zm40.063-61.488c-2.606,0-5.267.078-7.909.232-2.619.152-5.294.383-7.949.686-3.5.4-6.957.934-10.279,1.59-3.414.674-6.788,1.5-10.028,2.442-3.323.972-6.6,2.1-9.752,3.365A102.341,102.341,0,0,0,46.988,51.9c-2.543,1.335-4.954,2.734-7.167,4.159a74.179,74.179,0,0,0-6.641,4.8c-1.066.868-2.1,1.769-3.086,2.679-1.008.933-1.987,1.9-2.911,2.884-.947,1.005-1.862,2.05-2.72,3.1-.878,1.079-1.725,2.2-2.515,3.34a54.6,54.6,0,0,0-3.221,5.222,46.153,46.153,0,0,0-2.443,5.289,40.56,40.56,0,0,0-1.654,5.355,37.594,37.594,0,0,0-.853,5.421,37.058,37.058,0,0,0-.042,5.486,38.954,38.954,0,0,0,.781,5.55,43.491,43.491,0,0,0,1.614,5.613,50.964,50.964,0,0,0,2.458,5.676c.275.546.491.841.838.841a1.687,1.687,0,0,0,.875-.385c3.966-2.764,8.021-5.39,12.051-7.805,4.111-2.464,8.32-4.782,12.51-6.891,4.266-2.148,8.638-4.141,12.994-5.924,2.21-.9,4.46-1.773,6.688-2.582,2.252-.818,4.546-1.6,6.819-2.321,2.577-.819,5.172-1.548,7.712-2.169,2.607-.637,5.232-1.177,7.8-1.605,2.633-.439,5.29-.774,7.9-1,2.664-.227,5.352-.342,7.989-.342h.2c2.687.006,5.426.133,8.141.379,2.65.24,5.353.6,8.036,1.068,2.614.457,5.283,1.031,7.934,1.706,2.58.657,5.216,1.429,7.836,2.295,4.335,1.432,8.677,3.066,12.906,4.857,4.161,1.762,8.332,3.727,12.4,5.839,4,2.077,8,4.356,11.913,6.774,3.838,2.375,7.692,4.952,11.454,7.661a1.737,1.737,0,0,0,.858.419c.266,0,.477-.213.776-.785a45.736,45.736,0,0,0,2.088-4.57,40.15,40.15,0,0,0,2.477-9.853,44.741,44.741,0,0,0,.313-5.453,29.353,29.353,0,0,0-.466-5.446c-1.685-10.009-6.655-18.8-15.193-26.889-8.982-8.5-20.117-14.795-34.04-19.23-3.091-.985-6.255-1.857-9.4-2.592-3.117-.727-6.306-1.34-9.476-1.822-3.137-.477-6.349-.839-9.546-1.076-3.159-.234-6.391-.353-9.6-.353ZM158.183,86.14a9.792,9.792,0,0,1-2.562-.341,9.952,9.952,0,0,1-2.414-1.013,10.526,10.526,0,0,1-2.15-1.668,11.686,11.686,0,0,1-1.773-2.306,12.579,12.579,0,0,1-1.015-2.179,13.533,13.533,0,0,1-.6-2.326,14.476,14.476,0,0,1-.189-2.4,14.981,14.981,0,0,1,.794-4.746,14.342,14.342,0,0,1,.96-2.2,13.375,13.375,0,0,1,1.319-1.994,12.366,12.366,0,0,1,1.667-1.715,11.326,11.326,0,0,1,3.352-1.985,10.046,10.046,0,0,1,3.518-.641,9.867,9.867,0,0,1,3.341.583,10.237,10.237,0,0,1,2.992,1.689,11.757,11.757,0,0,1,3.931,6.349,15.687,15.687,0,0,1,.433,3.908,14.571,14.571,0,0,1-1.084,5.31,13.311,13.311,0,0,1-1.319,2.419,14.071,14.071,0,0,1-1.885,2.2,11.282,11.282,0,0,1-3.515,2.3A10.019,10.019,0,0,1,158.183,86.14ZM47.129,86.121h0a10.119,10.119,0,0,1-2.376-.285,10.589,10.589,0,0,1-2.307-.855A11.319,11.319,0,0,1,40.3,83.558a12.456,12.456,0,0,1-1.888-1.99,14.585,14.585,0,0,1-2.208-4.1,13.052,13.052,0,0,1-.535-2.106,11.748,11.748,0,0,1-.16-2.068,16.471,16.471,0,0,1,.609-4.64,11.868,11.868,0,0,1,1.9-3.794,11.26,11.26,0,0,1,1.719-1.842,10.314,10.314,0,0,1,1.982-1.329,9.827,9.827,0,0,1,2.169-.806,9.712,9.712,0,0,1,2.278-.271,10.472,10.472,0,0,1,6.256,2.144,12.472,12.472,0,0,1,1.97,1.825,13.292,13.292,0,0,1,1.535,2.174,14.189,14.189,0,0,1,1.086,2.43,14.791,14.791,0,0,1,.772,5.26,14.207,14.207,0,0,1-.342,2.644,13.33,13.33,0,0,1-.846,2.528,12.519,12.519,0,0,1-1.364,2.318,10.991,10.991,0,0,1-1.719,1.832,10.118,10.118,0,0,1-1.977,1.307,9.8,9.8,0,0,1-4.409,1.044Z" transform="translate(26 42.369)" fill="#080808" stroke="#000" stroke-linecap="round" stroke-width="2"/>
  </g>
</svg>
