<svg xmlns="http://www.w3.org/2000/svg" xmlns:xlink="http://www.w3.org/1999/xlink" width="512" height="512" viewBox="0 0 512 512"><defs><clipPath id="b"><rect width="512" height="512"/></clipPath></defs><g id="a" clip-path="url(#b)"><rect width="512" height="512" rx="88" fill="#fff"/><path d="M167.568,371.812A234.152,234.152,0,0,1,111.5,349.98c-16.45,13.764-35.268,21.344-52.987,21.344a55.137,55.137,0,0,1-28.265-7.479,56.084,56.084,0,0,1-20.2-20.534,69.444,69.444,0,0,1-6.075-13.773A82.953,82.953,0,0,1,.657,314.067a103.433,103.433,0,0,1,1.867-34.123A124.409,124.409,0,0,1,16.1,244.774,128.019,128.019,0,0,1,26.533,229.2c-.1-1.978-.147-3.994-.147-5.99a122.8,122.8,0,0,1,10.89-50.367A148.1,148.1,0,0,1,67.549,129.3a49.191,49.191,0,0,1-4.715-20.933c0-12.965,5.165-25.4,14.937-35.969a34.659,34.659,0,0,1-9.982-6.509,42.733,42.733,0,0,1-8.222-10.4,43.244,43.244,0,0,1-4.724-12.233,35.959,35.959,0,0,1-.649-11.868,26.215,26.215,0,0,1,3.266-10.172,19.513,19.513,0,0,1,7.024-7.143,19.182,19.182,0,0,1,9.832-2.6,25.292,25.292,0,0,1,9.872,2.12,34.552,34.552,0,0,1,9.431,6.055c.135-.247.257-.463.368-.66C100.553,7.453,111.537,0,121.974,0a19.176,19.176,0,0,1,9.83,2.6,19.5,19.5,0,0,1,7.025,7.143A26.2,26.2,0,0,1,142.1,19.916a35.983,35.983,0,0,1-.649,11.868,43.3,43.3,0,0,1-4.724,12.233c-.425.745-.875,1.487-1.339,2.2,3.207-.285,6.469-.429,9.7-.429a107.754,107.754,0,0,1,18.269,1.549,100.274,100.274,0,0,1,16.835,4.42,90.261,90.261,0,0,1,14.955,6.952,77.856,77.856,0,0,1,12.627,9.143C215.745,67.141,223.9,66.78,232,66.78a270.277,270.277,0,0,1,41.439,3.178,253.9,253.9,0,0,1,38.6,9.115A232.268,232.268,0,0,1,346.962,93.5a205.474,205.474,0,0,1,30.43,19.1A176.518,176.518,0,0,1,402.5,135.75a149.844,149.844,0,0,1,18.958,26.572,130.157,130.157,0,0,1,11.981,29.364,121.427,121.427,0,0,1,4.177,31.527c0,1.985-.049,4-.148,5.991a127.964,127.964,0,0,1,10.427,15.569,124.409,124.409,0,0,1,13.581,35.17,103.408,103.408,0,0,1,1.867,34.123,83.008,83.008,0,0,1-3.316,15.471,69.491,69.491,0,0,1-6.076,13.773,56.075,56.075,0,0,1-20.2,20.534,55.151,55.151,0,0,1-28.261,7.478c-17.719,0-36.539-7.58-52.992-21.343a234.107,234.107,0,0,1-56.07,21.831,268.892,268.892,0,0,1-128.863,0ZM235.8,369.19a240.337,240.337,0,0,0,69.6-11.162V206.717c-22.079-7.16-45.848-12.249-69.6-12.809ZM158.1,206.56V357.865a240.112,240.112,0,0,0,69.6,11.317V193.9C203.937,194.386,180.177,199.427,158.1,206.56ZM313.5,355.257a197.846,197.846,0,0,0,52.257-28.193q.51-.389,1.015-.779c28.1-24.5,41.317-56.8,44.772-66.332-9.906-6.939-49.135-33.232-98.044-50.492ZM51.44,260.132a124.866,124.866,0,0,0,18.408,39.4A159.13,159.13,0,0,0,98.24,327.065a197.67,197.67,0,0,0,51.748,28.007V209.3C100.5,226.706,60.9,253.463,51.44,260.132ZM417.4,254.11a111.976,111.976,0,0,0,3.768-28.812c0-38.442-19.677-74.582-55.4-101.766S282.528,81.38,232,81.38,133.968,96.35,98.24,123.532,42.834,186.856,42.834,225.3a111.924,111.924,0,0,0,3.649,28.356c14.352-10.275,98.768-67.95,184.994-67.95C319.083,185.7,405.08,245.245,417.4,254.11ZM77.738,185.962c-2.385-13.622,3.856-26.118,13.939-27.909s20.191,7.8,22.576,21.424-3.856,26.118-13.939,27.909a13.944,13.944,0,0,1-2.44.215C88.648,207.6,79.931,198.484,77.738,185.962ZM363.694,207.34c-10.051-1.785-16.269-14.255-13.889-27.853s12.459-23.175,22.509-21.389,16.269,14.255,13.889,27.853c-2.188,12.5-10.882,21.6-20.08,21.6A13.867,13.867,0,0,1,363.694,207.34Z" transform="translate(24 63.3)"/></g></svg>