<svg xmlns="http://www.w3.org/2000/svg" xmlns:xlink="http://www.w3.org/1999/xlink" width="512" height="512" viewBox="0 0 512 512">
  <defs>
    <clipPath id="clip-kunlab_bg_logo">
      <rect width="512" height="512"/>
    </clipPath>
  </defs>
  <g id="kunlab_bg_logo" clip-path="url(#clip-kunlab_bg_logo)">
    <rect id="矩形_5" data-name="矩形 5" width="512" height="512" rx="256" fill="#fff"/>
    <path id="联合_13" data-name="联合 13" d="M147.344,326.938a205.89,205.89,0,0,1-49.3-19.2c-14.465,12.1-31.012,18.768-46.592,18.768A48.483,48.483,0,0,1,26.6,319.932,49.315,49.315,0,0,1,8.837,301.876a61.062,61.062,0,0,1-5.342-12.11,72.941,72.941,0,0,1-2.917-13.6,90.949,90.949,0,0,1,1.641-30,109.394,109.394,0,0,1,11.942-30.926,112.568,112.568,0,0,1,9.17-13.691c-.085-1.739-.129-3.512-.129-5.267a107.98,107.98,0,0,1,9.576-44.288A130.228,130.228,0,0,1,59.4,113.692a43.254,43.254,0,0,1-4.146-18.407c0-11.4,4.542-22.337,13.135-31.628a30.476,30.476,0,0,1-8.777-5.723,37.576,37.576,0,0,1-7.23-9.141,38.025,38.025,0,0,1-4.154-10.756A31.619,31.619,0,0,1,47.654,27.6a23.051,23.051,0,0,1,2.872-8.944A17.158,17.158,0,0,1,56.7,12.375a16.867,16.867,0,0,1,8.645-2.287,22.24,22.24,0,0,1,8.681,1.864,30.382,30.382,0,0,1,8.293,5.324c.119-.218.226-.408.324-.58C88.417,6.553,98.076,0,107.253,0A16.862,16.862,0,0,1,115.9,2.287a17.148,17.148,0,0,1,6.177,6.281,23.034,23.034,0,0,1,2.873,8.944,31.64,31.64,0,0,1-.571,10.436A38.073,38.073,0,0,1,120.222,38.7c-.374.655-.769,1.307-1.178,1.937,2.82-.251,5.688-.377,8.526-.377a94.749,94.749,0,0,1,16.064,1.362,88.172,88.172,0,0,1,14.8,3.886,79.367,79.367,0,0,1,13.15,6.113,68.459,68.459,0,0,1,11.1,8.04c7.016-.628,14.185-.945,21.309-.945a237.658,237.658,0,0,1,36.437,2.794,223.252,223.252,0,0,1,33.938,8.015,204.235,204.235,0,0,1,30.712,12.682,180.674,180.674,0,0,1,26.757,16.8,155.213,155.213,0,0,1,22.078,20.357,131.758,131.758,0,0,1,16.67,23.365,114.449,114.449,0,0,1,10.535,25.82,106.773,106.773,0,0,1,3.673,27.722c0,1.746-.044,3.518-.13,5.268a112.517,112.517,0,0,1,9.169,13.69,109.394,109.394,0,0,1,11.942,30.926,90.928,90.928,0,0,1,1.641,30,72.99,72.99,0,0,1-2.916,13.6,61.107,61.107,0,0,1-5.343,12.11A49.308,49.308,0,0,1,381.4,319.932a48.5,48.5,0,0,1-24.85,6.576c-15.581,0-32.129-6.665-46.6-18.767a205.852,205.852,0,0,1-49.3,19.2,236.44,236.44,0,0,1-113.311,0Zm60-2.305a211.331,211.331,0,0,0,61.2-9.815V181.768c-19.414-6.3-40.314-10.771-61.2-11.263Zm-68.325-143V314.675a211.132,211.132,0,0,0,61.2,9.951V170.495C179.324,170.925,158.432,175.359,139.016,181.63ZM275.667,312.381a173.967,173.967,0,0,0,45.95-24.79q.449-.342.893-.685c24.706-21.54,36.331-49.945,39.369-58.326-8.711-6.1-43.2-29.222-86.211-44.4ZM45.232,228.736a109.8,109.8,0,0,0,16.186,34.642,139.926,139.926,0,0,0,24.965,24.213,173.813,173.813,0,0,0,45.5,24.627V184.037C88.369,199.345,53.552,222.873,45.232,228.736Zm321.789-5.3a98.462,98.462,0,0,0,3.314-25.334c0-33.8-17.3-65.581-48.718-89.484S248.43,71.558,204,71.558,117.8,84.721,86.383,108.623,37.664,164.3,37.664,198.107a98.416,98.416,0,0,0,3.208,24.934c12.62-9.035,86.848-59.749,162.667-59.749C280.573,163.292,356.191,215.646,367.021,223.441ZM68.356,163.518c-2.1-11.978,3.39-22.966,12.257-24.541s17.755,6.86,19.851,18.838-3.39,22.966-12.257,24.541a12.259,12.259,0,0,1-2.145.189C77.949,182.546,70.284,174.529,68.356,163.518Zm251.443,18.8c-8.838-1.569-14.306-12.535-12.213-24.492s10.955-20.378,19.792-18.808,14.306,12.535,12.213,24.492c-1.924,10.992-9.569,19-17.656,19A12.193,12.193,0,0,1,319.8,182.316Z" transform="translate(52 89.087)"/>
  </g>
</svg>
